<svg width="54" height="54" viewBox="0 0 54 54" fill="none" xmlns="http://www.w3.org/2000/svg">
<path d="M27 0C12.0847 0 0 12.0847 0 27C0 41.9153 12.0847 54 27 54C41.9153 54 54 41.9153 54 27C54 12.0847 41.9153 0 27 0ZM40.2605 18.4972L35.8294 39.3786C35.5028 40.8593 34.621 41.2186 33.3907 40.5218L26.6407 35.5464L23.3855 38.6819C23.0262 39.0411 22.7214 39.346 22.0246 39.346L22.5036 32.4762L35.0129 21.1754C35.5573 20.6964 34.8931 20.4242 34.1746 20.9032L18.7149 30.6363L12.052 28.5569C10.604 28.0996 10.5714 27.1089 12.3569 26.4121L38.3879 16.3742C39.5964 15.9387 40.6524 16.6681 40.2605 18.4972Z" fill="#002E5B"/>
</svg>
