<svg width="19" height="19" viewBox="0 0 19 19" fill="none" xmlns="http://www.w3.org/2000/svg">
<path d="M9.42 0C4.21621 0 0 4.21665 0 9.42099C0 14.6253 4.21621 18.842 9.42 18.842C14.6238 18.842 18.84 14.6253 18.84 9.42099C18.84 4.21665 14.6238 0 9.42 0ZM12.9331 11.8902L12.1735 12.8399C12.1236 12.9022 12.062 12.9541 11.992 12.9926C11.9221 13.0312 11.8453 13.0555 11.766 13.0643C11.6867 13.0731 11.6064 13.0663 11.5297 13.044C11.4531 13.0218 11.3815 12.9847 11.3192 12.9349L8.77427 11.0461C8.59646 10.9037 8.45293 10.7232 8.3543 10.5178C8.25568 10.3125 8.20449 10.0876 8.20452 9.85975V3.95074C8.20452 3.78954 8.26855 3.63494 8.38252 3.52095C8.49649 3.40697 8.65108 3.34293 8.81226 3.34293H10.0277C10.1889 3.34293 10.3435 3.40697 10.4575 3.52095C10.5715 3.63494 10.6355 3.78954 10.6355 3.95074V9.42099L12.8385 11.0355C12.9009 11.0854 12.9528 11.1471 12.9913 11.217C13.0298 11.287 13.0542 11.3639 13.063 11.4432C13.0717 11.5226 13.0648 11.6029 13.0425 11.6796C13.0202 11.7563 12.9831 11.8279 12.9331 11.8902Z" fill="#17223D"/>
</svg>
