<svg width="19" height="19" viewBox="0 0 19 19" fill="none" xmlns="http://www.w3.org/2000/svg">
<path d="M9.5 0C14.748 0 19 4.25202 19 9.5C19 14.748 14.748 19 9.5 19C4.25202 19 0 14.748 0 9.5C0 4.25202 4.25202 0 9.5 0ZM8.39294 5.50081L11.2851 8.27419H4.29032C3.78085 8.27419 3.37097 8.68407 3.37097 9.19355V9.80645C3.37097 10.3159 3.78085 10.7258 4.29032 10.7258H11.2851L8.39294 13.4992C8.02137 13.8554 8.01371 14.4492 8.37762 14.8131L8.79899 15.2306C9.15907 15.5907 9.74133 15.5907 10.0976 15.2306L15.1808 10.1512C15.5409 9.79113 15.5409 9.20887 15.1808 8.85262L10.0976 3.76552C9.7375 3.40544 9.15524 3.40544 8.79899 3.76552L8.37762 4.18306C8.01371 4.55081 8.02137 5.14456 8.39294 5.50081Z" fill="white"/>
</svg>
