<svg width="31" height="31" viewBox="0 0 31 31" fill="none" xmlns="http://www.w3.org/2000/svg">
<path d="M0 15.5C0 24.0625 6.9375 31 15.5 31C24.0625 31 31 24.0625 31 15.5C31 6.9375 24.0625 0 15.5 0C6.9375 0 0 6.9375 0 15.5ZM28 15.5C28 22.4062 22.4062 28 15.5 28C8.59375 28 3 22.4062 3 15.5C3 8.59375 8.59375 3 15.5 3C22.4062 3 28 8.59375 28 15.5ZM23.5 14.25V16.75C23.5 17.1625 23.1625 17.5 22.75 17.5H15.5V21.6875C15.5 22.3562 14.6937 22.6875 14.2188 22.2188L8.03125 16.0312C7.7375 15.7375 7.7375 15.2625 8.03125 14.9688L14.2188 8.78125C14.6937 8.30625 15.5 8.64375 15.5 9.3125V13.5H22.75C23.1625 13.5 23.5 13.8375 23.5 14.25Z" fill="black"/>
</svg>
