<svg width="27" height="41" viewBox="0 0 27 41" fill="none" xmlns="http://www.w3.org/2000/svg">
<path d="M22.95 0H4.05C1.81406 0 0 1.72168 0 3.84375V37.1562C0 39.2783 1.81406 41 4.05 41H22.95C25.1859 41 27 39.2783 27 37.1562V3.84375C27 1.72168 25.1859 0 22.95 0ZM13.5 38.4375C12.0066 38.4375 10.8 37.2924 10.8 35.875C10.8 34.4576 12.0066 33.3125 13.5 33.3125C14.9934 33.3125 16.2 34.4576 16.2 35.875C16.2 37.2924 14.9934 38.4375 13.5 38.4375ZM22.95 29.7891C22.95 30.3176 22.4944 30.75 21.9375 30.75H5.0625C4.50563 30.75 4.05 30.3176 4.05 29.7891V4.80469C4.05 4.27617 4.50563 3.84375 5.0625 3.84375H21.9375C22.4944 3.84375 22.95 4.27617 22.95 4.80469V29.7891Z" fill="#17223D"/>
</svg>
