<svg width="35" height="25" viewBox="0 0 35 25" fill="none" xmlns="http://www.w3.org/2000/svg">
<path d="M31.7188 0H3.28125C1.46904 0 0 1.39909 0 3.125V21.875C0 23.6009 1.46904 25 3.28125 25H31.7188C33.531 25 35 23.6009 35 21.875V3.125C35 1.39909 33.531 0 31.7188 0ZM31.7188 3.125V5.78157C30.186 6.97031 27.7424 8.81875 22.5185 12.7145C21.3672 13.577 19.0868 15.6489 17.5 15.6247C15.9135 15.6492 13.6323 13.5766 12.4815 12.7145C7.2584 8.81934 4.81421 6.97051 3.28125 5.78157V3.125H31.7188ZM3.28125 21.875V9.79154C4.84764 10.9798 7.06897 12.6471 10.4547 15.1721C11.9489 16.2923 14.5655 18.765 17.5 18.7499C20.4201 18.765 23.0035 16.3281 24.5446 15.1727C27.9303 12.6477 30.1523 10.9799 31.7188 9.7916V21.875H3.28125Z" fill="#17223D"/>
</svg>
