<svg width="26" height="30" viewBox="0 0 26 30" fill="none" xmlns="http://www.w3.org/2000/svg">
<path d="M22.236 3.72656C19.7942 1.32422 16.5742 0 13.1645 0C5.90852 0 0 5.63672 0 12.5625C0 16.9629 3.65645 21.9258 5.23163 23.8535C7.54696 26.6895 11.0136 30 13.1645 30C15.7961 30 20.3066 24.4805 20.8127 23.8477C22.3689 21.9082 26 16.916 26 12.5625C26 9.25195 24.6652 6.11133 22.236 3.72656ZM13.1645 28.9395C10.4759 28.9395 1.14501 19.1367 1.14501 12.5684C1.14501 6.27539 6.45256 1.06641 13.1645 1.06641C19.5411 1.06641 24.8487 6.28125 24.8487 12.5684C24.855 19.1367 15.5241 28.9395 13.1645 28.9395ZM20.2117 12.1172C20.2117 15.5801 16.9791 18.5449 13.2024 18.5449C6.83844 18.5449 3.6691 12.2051 7.32555 7.89258V7.91602C7.32555 9.35156 8.59708 10.5176 10.1596 10.5176C11.7221 10.5176 12.9937 9.35156 12.9937 7.91602C12.9937 6.84961 12.2915 5.93555 11.292 5.53125C16.1377 4.40625 20.2117 7.83398 20.2117 12.1172Z" fill="#17223D"/>
</svg>
