<svg width="27" height="27" viewBox="0 0 27 27" fill="none" xmlns="http://www.w3.org/2000/svg">
<path d="M13.5 0C6.04468 0 0 6.04686 0 13.5C0 20.9575 6.04468 27 13.5 27C20.9553 27 27 20.9575 27 13.5C27 6.04686 20.9553 0 13.5 0ZM13.5 5.9879C14.7627 5.9879 15.7863 7.01151 15.7863 8.27419C15.7863 9.53688 14.7627 10.5605 13.5 10.5605C12.2373 10.5605 11.2137 9.53688 11.2137 8.27419C11.2137 7.01151 12.2373 5.9879 13.5 5.9879ZM16.5484 19.8145C16.5484 20.1753 16.2559 20.4677 15.8952 20.4677H11.1048C10.7441 20.4677 10.4516 20.1753 10.4516 19.8145V18.5081C10.4516 18.1473 10.7441 17.8548 11.1048 17.8548H11.7581V14.371H11.1048C10.7441 14.371 10.4516 14.0785 10.4516 13.7177V12.4113C10.4516 12.0505 10.7441 11.7581 11.1048 11.7581H14.5887C14.9495 11.7581 15.2419 12.0505 15.2419 12.4113V17.8548H15.8952C16.2559 17.8548 16.5484 18.1473 16.5484 18.5081V19.8145Z" fill="#17223D"/>
</svg>
